<?xml version="1.0" encoding="utf-8"?>
<!-- Generator: Adobe Illustrator 23.0.1, SVG Export Plug-In . SVG Version: 6.00 Build 0)  -->
<svg version="1.1" xmlns="http://www.w3.org/2000/svg" xmlns:xlink="http://www.w3.org/1999/xlink" x="0px" y="0px"
	 viewBox="0 0 800 800" style="enable-background:new 0 0 800 800;" xml:space="preserve">
<style type="text/css">
	.st0{fill:none;stroke:#FFFFFF;stroke-width:2;stroke-linecap:round;stroke-linejoin:round;stroke-dasharray:0.9977,7.9814;}
	.st1{opacity:0.8;}
	.st2{fill:none;stroke:#FFFFFF;stroke-width:2;stroke-linecap:round;stroke-linejoin:round;stroke-dasharray:1.0005,8.0037;}
	.st3{opacity:0.6;}
	.st4{fill:none;stroke:#FFFFFF;stroke-width:2;stroke-linecap:round;stroke-linejoin:round;stroke-dasharray:1.002,8.016;}
	.st5{opacity:0.4;}
	.st6{fill:none;stroke:#FFFFFF;stroke-width:2;stroke-linecap:round;stroke-linejoin:round;stroke-dasharray:0.9968,7.9746;}
	.st7{opacity:0.2;}
	.st8{fill:none;stroke:#FFFFFF;stroke-width:2;stroke-linecap:round;stroke-linejoin:round;stroke-dasharray:0.9995,7.9962;}
	.st9{opacity:0.1;}
	.st10{fill:none;stroke:#FFFFFF;stroke-width:2;stroke-linecap:round;stroke-linejoin:round;stroke-dasharray:1.0023,8.0187;}
	.st11{fill:#FFFFFF;}
	.st12{opacity:0.8;fill:#FFFFFF;}
	.st13{fill:#005082;}
	.st14{opacity:0.6;fill:#005082;}
	.st15{opacity:0.6;fill:none;stroke:#FFFFFF;stroke-width:2;stroke-linecap:round;stroke-linejoin:round;stroke-miterlimit:10;}
	.st16{opacity:0.4;fill:none;stroke:#FFFFFF;stroke-width:2;stroke-linecap:round;stroke-linejoin:round;stroke-miterlimit:10;}
	.st17{opacity:0.2;fill:none;stroke:#FFFFFF;stroke-width:2;stroke-linecap:round;stroke-linejoin:round;stroke-miterlimit:10;}
	.st18{opacity:0.1;fill:none;stroke:#FFFFFF;stroke-width:2;stroke-linecap:round;stroke-linejoin:round;stroke-miterlimit:10;}
	.st19{fill:#B3FF30;}
	.st20{clip-path:url(#SVGID_2_);}
	.st21{fill:#8C4054;}
	.st22{fill:#EDBBA4;}
	.st23{fill:#FFC9B0;}
	.st24{fill:#FF26D0;}
	.st25{opacity:0.2;fill:#FFFFFF;}
	.st26{fill:#FF9121;}
	.st27{clip-path:url(#SVGID_4_);}
	.st28{fill:#825548;}
	.st29{fill:#52B6DE;}
	.st30{fill:#29EDFF;}
	.st31{clip-path:url(#SVGID_6_);}
	.st32{fill:#7D3C30;}
	.st33{fill:#138A61;}
	.st34{fill:#DBFCFF;}
	.st35{fill:#3B352E;}
	.st36{fill:#B6F089;}
	.st37{fill:#F74F5A;}
	.st38{clip-path:url(#SVGID_8_);}
	.st39{fill:#544747;}
	.st40{fill:#51576B;}
	.st41{fill:#626A82;}
	.st42{fill:#FF6EFA;}
	.st43{clip-path:url(#SVGID_10_);}
	.st44{fill:#A84126;}
	.st45{fill:#00E0A5;}
	.st46{fill:#1EA600;}
	.st47{fill:#14C4FF;}
	.st48{clip-path:url(#SVGID_12_);}
	.st49{fill:#7D450B;}
	.st50{fill:#E8B817;}
	.st51{fill:#00A4DB;}
	.st52{clip-path:url(#SVGID_14_);}
	.st53{fill:#B142FF;}
	.st54{fill:#00D9A3;}
	.st55{clip-path:url(#SVGID_16_);}
	.st56{fill:#8F3820;}
	.st57{fill:#212842;}
	.st58{fill:#939BB8;}
	.st59{fill:#FF4549;}
	.st60{fill:#4296C9;}
	.st61{fill:#006BAD;}
	.st62{fill:#00BBFF;}
	.st63{fill:#0062A8;}
	.st64{fill:none;stroke:#FFFFFF;stroke-width:3;stroke-linecap:round;stroke-linejoin:round;stroke-miterlimit:10;}
	.st65{fill:none;stroke:#0062A8;stroke-width:2;stroke-miterlimit:10;}
	.st66{fill:#2FBA87;stroke:#FFFFFF;stroke-width:4;stroke-linecap:round;stroke-linejoin:round;stroke-miterlimit:10;}
	.st67{fill:none;stroke:#FFFFFF;stroke-width:4;stroke-linecap:round;stroke-linejoin:round;stroke-miterlimit:10;}
	.st68{opacity:0.16;fill:#FFFFFF;}
</style>
<g id="Background">
</g>
<g id="Objects">
	<g>
		<g>
			<g>
				<ellipse class="st0" cx="400.5" cy="445.7" rx="110.8" ry="109.2"/>
			</g>
			<g class="st1">
				<ellipse class="st2" cx="400.5" cy="445.7" rx="142.9" ry="140.8"/>
			</g>
			<g class="st3">
				<ellipse class="st4" cx="400.5" cy="445.7" rx="176.4" ry="173.8"/>
			</g>
			<g class="st5">
				<ellipse class="st6" cx="400.5" cy="445.7" rx="210" ry="206.9"/>
			</g>
			<g class="st7">
				<ellipse class="st8" cx="400.5" cy="445.7" rx="243.7" ry="240.2"/>
			</g>
			<g class="st9">
				<ellipse class="st10" cx="400.5" cy="445.7" rx="279.1" ry="275"/>
			</g>
		</g>
		<polygon class="st11" points="264,662.2 265.1,665 267.9,666.1 265.1,667.2 264,670 262.9,667.2 260,666.1 262.9,665 		"/>
		<polygon class="st11" points="602.9,327.6 604,330.4 606.8,331.5 604,332.6 602.9,335.4 601.8,332.6 599,331.5 601.8,330.4 		"/>
		<polygon class="st11" points="353.8,529.5 355,532.4 357.9,533.5 355,534.7 353.8,537.6 352.7,534.7 349.7,533.5 352.7,532.4 		
			"/>
		<polygon class="st11" points="630.6,239.9 631.7,242.7 634.5,243.8 631.7,244.9 630.6,247.7 629.5,244.9 626.6,243.8 629.5,242.7 
					"/>
		<polygon class="st11" points="498.3,198.1 500.2,202.7 504.9,204.6 500.2,206.4 498.3,211.1 496.4,206.4 491.7,204.6 496.4,202.7 
					"/>
		<polygon class="st11" points="144.4,335 146.3,339.6 151,341.5 146.3,343.3 144.4,348 142.5,343.3 137.8,341.5 142.5,339.6 		"/>
		<polygon class="st11" points="484.2,691 486.1,695.7 490.9,697.5 486.1,699.4 484.2,704.1 482.4,699.4 477.6,697.5 482.4,695.7 		
			"/>
		<polygon class="st11" points="674.5,420.7 676.3,425.4 681.1,427.2 676.3,429.1 674.5,433.7 672.6,429.1 667.8,427.2 672.6,425.4 
					"/>
		<polygon class="st11" points="143.7,596.1 145.6,600.7 150.3,602.6 145.6,604.4 143.7,609.1 141.8,604.4 137.1,602.6 141.8,600.7 
					"/>
		<ellipse class="st12" cx="144.4" cy="541.4" rx="2.1" ry="2.1"/>
		<path class="st12" d="M669.7,596.8c0,1.1-0.9,2.1-2.1,2.1c-1.2,0-2.1-0.9-2.1-2.1c0-1.1,0.9-2.1,2.1-2.1
			C668.7,594.7,669.7,595.7,669.7,596.8z"/>
		<path class="st12" d="M511.5,621.2c0,1.1-0.9,2.1-2.1,2.1c-1.2,0-2.1-0.9-2.1-2.1c0-1.1,0.9-2.1,2.1-2.1
			C510.5,619.2,511.5,620.1,511.5,621.2z"/>
		<ellipse class="st12" cx="413.6" cy="315.9" rx="2.1" ry="2.1"/>
		<path class="st12" d="M375.1,717.6c0,1.1-0.9,2.1-2.1,2.1c-1.2,0-2.1-0.9-2.1-2.1c0-1.1,0.9-2.1,2.1-2.1
			C374.1,715.5,375.1,716.4,375.1,717.6z"/>
		<path class="st12" d="M363,575.4c0,1.1-0.9,2.1-2.1,2.1c-1.2,0-2.1-0.9-2.1-2.1c0-1.1,0.9-2.1,2.1-2.1
			C362,573.3,363,574.2,363,575.4z"/>
		<polygon class="st13" points="615.8,282 617.7,286.7 622.5,288.5 617.7,290.4 615.8,295.1 614,290.4 609.2,288.5 614,286.7 		"/>
		<polygon class="st13" points="420.8,350.5 422.7,355.2 427.4,357.1 422.7,358.9 420.8,363.6 418.9,358.9 414.2,357.1 418.9,355.2 
					"/>
		<polygon class="st13" points="326.6,609.3 328.5,614 333.2,615.9 328.5,617.7 326.6,622.4 324.7,617.7 320,615.9 324.7,614 		"/>
		<polygon class="st13" points="594.7,625.5 596.5,630.2 601.3,632 596.5,633.9 594.7,638.6 592.8,633.9 588,632 592.8,630.2 		"/>
		<polygon class="st13" points="188.1,317.4 190,322.1 194.7,324 190,325.8 188.1,330.5 186.2,325.8 181.5,324 186.2,322.1 		"/>
		<polygon class="st13" points="313.4,681.9 315.3,686.6 320,688.5 315.3,690.3 313.4,695 311.6,690.3 306.8,688.5 311.6,686.6 		
			"/>
		<path class="st14" d="M572.2,684.1c0,2.1-1.7,3.7-3.8,3.7s-3.8-1.7-3.8-3.7c0-2.1,1.7-3.7,3.8-3.7S572.2,682,572.2,684.1z"/>
		<path class="st14" d="M218.4,642.6c0,2.1-1.7,3.7-3.8,3.7c-2.1,0-3.8-1.7-3.8-3.7c0-2.1,1.7-3.7,3.8-3.7
			C216.8,638.9,218.4,640.5,218.4,642.6z"/>
		<path class="st14" d="M300.2,166.3c0,2.1-1.7,3.7-3.8,3.7c-2.1,0-3.8-1.7-3.8-3.7s1.7-3.7,3.8-3.7
			C298.5,162.6,300.2,164.2,300.2,166.3z"/>
		<ellipse class="st14" cx="510.3" cy="381.6" rx="3.8" ry="3.7"/>
		<path class="st14" d="M274.1,418.9c0,2.1-1.7,3.7-3.8,3.7c-2.1,0-3.8-1.7-3.8-3.7c0-2.1,1.7-3.7,3.8-3.7
			C272.4,415.2,274.1,416.9,274.1,418.9z"/>
		<path class="st14" d="M508,520c0,2.1-1.7,3.7-3.8,3.7s-3.8-1.7-3.8-3.7s1.7-3.7,3.8-3.7S508,518,508,520z"/>
		<path class="st14" d="M661.1,488.7c0,2.1-1.7,3.7-3.8,3.7c-2.1,0-3.8-1.7-3.8-3.7c0-2.1,1.7-3.7,3.8-3.7
			C659.5,485,661.1,486.6,661.1,488.7z"/>
		<path class="st14" d="M461.7,226.1c0,2.1-1.7,3.7-3.8,3.7c-2.1,0-3.8-1.7-3.8-3.7c0-2.1,1.7-3.7,3.8-3.7
			C460.1,222.4,461.7,224,461.7,226.1z"/>
		<g>
			<ellipse class="st15" cx="424.3" cy="623.2" rx="46.9" ry="46.2"/>
			<ellipse class="st16" cx="424.3" cy="623.2" rx="55.9" ry="55"/>
			<ellipse class="st17" cx="424.3" cy="623.2" rx="64.8" ry="63.9"/>
			<ellipse class="st18" cx="424.3" cy="623.2" rx="74.3" ry="73.2"/>
		</g>
		<g>
			<ellipse class="st15" cx="596.9" cy="422.1" rx="46.9" ry="46.2"/>
			<ellipse class="st16" cx="596.9" cy="422.1" rx="55.9" ry="55"/>
			<ellipse class="st17" cx="596.9" cy="422.1" rx="64.8" ry="63.9"/>
			<ellipse class="st18" cx="596.9" cy="422.1" rx="74.3" ry="73.2"/>
		</g>
		<g>
			<ellipse class="st15" cx="510.8" cy="298.4" rx="46.9" ry="46.2"/>
			<ellipse class="st16" cx="510.8" cy="298.4" rx="55.9" ry="55"/>
			<ellipse class="st17" cx="510.8" cy="298.4" rx="64.8" ry="63.9"/>
			<ellipse class="st18" cx="510.8" cy="298.4" rx="74.3" ry="73.2"/>
		</g>
		<g>
			<ellipse class="st15" cx="362.6" cy="237" rx="46.9" ry="46.2"/>
			<ellipse class="st16" cx="362.6" cy="237" rx="55.9" ry="55"/>
			<ellipse class="st17" cx="362.6" cy="237" rx="64.8" ry="63.9"/>
			<ellipse class="st18" cx="362.6" cy="237" rx="74.3" ry="73.2"/>
		</g>
		<g>
			<ellipse class="st15" cx="295.6" cy="337.1" rx="46.9" ry="46.2"/>
			<ellipse class="st16" cx="295.6" cy="337.1" rx="55.9" ry="55"/>
			<ellipse class="st17" cx="295.6" cy="337.1" rx="64.8" ry="63.9"/>
			<ellipse class="st18" cx="295.6" cy="337.1" rx="74.3" ry="73.2"/>
		</g>
		<g>
			<path class="st15" d="M235.3,456.8c0,25.5-18.7,44.1-44.7,44.1c-25.9,0-46.9-20.7-46.9-46.2c0-25.5,21-46.2,46.9-46.2
				C216.6,408.4,235.3,431.3,235.3,456.8z"/>
			<ellipse class="st16" cx="190.7" cy="454.7" rx="55.9" ry="55"/>
			<ellipse class="st17" cx="190.7" cy="454.7" rx="64.8" ry="63.9"/>
			<ellipse class="st18" cx="190.7" cy="454.7" rx="74.3" ry="73.2"/>
		</g>
		<g>
			<ellipse class="st15" cx="260.6" cy="561.1" rx="46.9" ry="46.2"/>
			<ellipse class="st16" cx="260.6" cy="561.1" rx="55.9" ry="55"/>
			<ellipse class="st17" cx="260.6" cy="561.1" rx="64.8" ry="63.9"/>
			<ellipse class="st18" cx="260.6" cy="561.1" rx="74.3" ry="73.2"/>
		</g>
		<g>
			<ellipse class="st15" cx="579.7" cy="566.1" rx="46.9" ry="46.2"/>
			<ellipse class="st16" cx="579.7" cy="566.1" rx="55.9" ry="55"/>
			<ellipse class="st17" cx="579.7" cy="566.1" rx="64.8" ry="63.9"/>
			<ellipse class="st18" cx="579.7" cy="566.1" rx="74.3" ry="73.2"/>
		</g>
		<g>
			<ellipse class="st19" cx="596.9" cy="422.1" rx="39.4" ry="38.8"/>
			<g>
				<defs>
					<ellipse id="SVGID_1_" cx="596.9" cy="422.1" rx="39.4" ry="38.8"/>
				</defs>
				<clipPath id="SVGID_2_">
					<use xlink:href="#SVGID_1_"  style="overflow:visible;"/>
				</clipPath>
				<g class="st20">
					<g>
						<path class="st21" d="M596.9,403.4l-18.5,9.9v13.9c0,0,3.7,8.1,18.5,8.1c14.8,0,18.5-8.1,18.5-8.1v-13.9L596.9,403.4z"/>
						<g>
							<path class="st22" d="M580.6,413.3c-0.9,0.2-1.2,2-0.7,4c0.5,2,1.6,3.4,2.4,3.2c0.9-0.2,1.2-2,0.7-4
								C582.5,414.5,581.5,413.1,580.6,413.3z"/>
							<path class="st22" d="M613.2,413.3c-0.9-0.2-1.9,1.2-2.4,3.2c-0.5,2-0.2,3.8,0.7,4c0.9,0.2,1.9-1.2,2.4-3.2
								C614.3,415.3,614,413.5,613.2,413.3z"/>
						</g>
						<rect x="593" y="428.4" class="st22" width="7.7" height="9.5"/>
						<path class="st23" d="M606.7,435.9c-2.9-1.1-6.2-1.7-9.8-1.7c-3.6,0-6.9,0.6-9.8,1.7c0.7,2.9,3,7.1,9.8,7.1
							C603.7,443.1,605.9,438.9,606.7,435.9z"/>
						<g>
							<path class="st24" d="M587.1,435.9C587.1,435.9,587.1,435.9,587.1,435.9C587.1,435.9,587.1,435.9,587.1,435.9
								C587.1,435.9,587.1,435.9,587.1,435.9z"/>
							<path class="st24" d="M606.7,435.9c-0.7,2.9-3,7.1-9.8,7.1c-6.8,0-9.1-4.2-9.8-7.1c-6,2.3-10.1,7-10.1,13.5v11.5h39.7v-11.5
								C616.7,443,612.7,438.3,606.7,435.9z"/>
							<path class="st24" d="M606.6,435.9C606.6,435.9,606.7,435.9,606.6,435.9C606.7,435.9,606.7,435.9,606.6,435.9
								C606.7,435.9,606.6,435.9,606.6,435.9z"/>
						</g>
						<ellipse class="st23" cx="596.9" cy="413.8" rx="14.7" ry="16.2"/>
						<path class="st21" d="M596.9,393.9c-13.4,0-18.5,11-18.5,17c0,3.2,0,4.9,0,4.9c10.9-1.5,18.5-12.1,18.5-12.1
							s7.6,10.7,18.5,12.1c0,0,0-1.7,0-4.9C615.3,404.8,610.3,393.9,596.9,393.9z"/>
					</g>
					<path class="st25" d="M596.9,393.9c-13.4,0-18.5,11-18.5,17c0,0.9,0,1.7,0,2.4v2.5v11.3c0,0,2.7,5.9,12.7,7.7
						c-1.4,0.3-2.8,0.7-4,1.1c0,0,0,0,0,0c0,0,0,0-0.1,0c0,0,0,0,0,0c-6,2.3-10.1,7-10.1,13.5v11.5h19.9V393.9z"/>
				</g>
				<use xlink:href="#SVGID_1_"  style="overflow:visible;fill:none;stroke:#FFFFFF;stroke-width:2;stroke-miterlimit:10;"/>
			</g>
		</g>
		<g>
			<ellipse class="st26" cx="295.6" cy="337.1" rx="39.4" ry="38.8"/>
			<g>
				<defs>
					<ellipse id="SVGID_3_" cx="295.6" cy="337.1" rx="39.4" ry="38.8"/>
				</defs>
				<clipPath id="SVGID_4_">
					<use xlink:href="#SVGID_3_"  style="overflow:visible;"/>
				</clipPath>
				<g class="st27">
					<g>
						<g>
							<path class="st28" d="M279.2,326.8v3.8l3.8,3.3c0,0-0.2-9-0.4-8.9C282.4,325.1,279.2,326.8,279.2,326.8z"/>
							<path class="st28" d="M312,326.8v3.8l-3.8,3.3c0,0,0.2-9,0.4-8.9C308.8,325.1,312,326.8,312,326.8z"/>
						</g>
						<g>
							<path class="st22" d="M279.3,328.3c-0.9,0.2-1.2,2-0.7,4c0.5,2,1.6,3.4,2.4,3.2c0.9-0.2,1.2-2,0.7-4
								C281.2,329.5,280.1,328.1,279.3,328.3z"/>
							<path class="st22" d="M311.8,328.3c-0.9-0.2-1.9,1.2-2.4,3.2c-0.5,2-0.2,3.8,0.7,4c0.9,0.2,1.9-1.2,2.4-3.2
								C313,330.3,312.7,328.5,311.8,328.3z"/>
						</g>
						<rect x="291.7" y="343.3" class="st22" width="7.7" height="9.5"/>
						<ellipse class="st23" cx="295.6" cy="328.7" rx="14.7" ry="16.2"/>
						<path class="st28" d="M295.6,308.8c-12,0-16.5,10.5-16.5,16.3v2.3c9.7-1.4,16.5-10.1,16.5-10.1s6.8,8.6,16.5,10.1v-2.3
							C312,319.3,307.5,308.8,295.6,308.8z"/>
						<path class="st23" d="M303.3,350.2c-2.4-0.7-5-1.1-7.7-1.1c-2.8,0-5.4,0.4-7.7,1.1c1.2,2.1,4.2,3.6,7.7,3.6
							C299.1,353.9,302.1,352.4,303.3,350.2z"/>
						<path class="st29" d="M305.4,350.9C305.4,350.9,305.4,350.9,305.4,350.9C305.4,350.9,305.3,350.9,305.4,350.9L305.4,350.9
							c-0.7-0.3-1.4-0.5-2.1-0.7c-1.3,2.1-4.2,3.7-7.7,3.7c-3.5,0-6.4-1.5-7.7-3.7c-0.7,0.2-1.4,0.4-2.1,0.7l0,0c0,0,0,0-0.1,0
							c0,0,0,0,0,0c-6,2.3-10.1,7-10.1,13.5v11.5h39.7v-11.5C315.4,357.9,311.4,353.3,305.4,350.9z"/>
					</g>
					<path class="st25" d="M295.6,308.8c-12,0-16.5,10.5-16.5,16.3v2.3c0,0,0,0,0.1,0v0.9c-0.8,0.3-1,2-0.6,3.9
						c0.5,2,1.6,3.4,2.4,3.2c0.4-0.1,0.6-0.5,0.8-1c1.7,4.8,5.3,8.6,9.9,9.9v5c-1.3,0.2-2.6,0.4-3.8,0.8c0,0,0,0,0,0
						c-0.7,0.2-1.4,0.4-2.1,0.7l0,0c0,0,0,0-0.1,0c0,0,0,0,0,0c-6,2.3-10.1,7-10.1,13.5v11.5h19.9V308.8z"/>
				</g>
				<use xlink:href="#SVGID_3_"  style="overflow:visible;fill:none;stroke:#FFFFFF;stroke-width:2;stroke-miterlimit:10;"/>
			</g>
		</g>
		<g>
			<ellipse class="st30" cx="579.7" cy="566.1" rx="39.4" ry="38.8"/>
			<g>
				<defs>
					<ellipse id="SVGID_5_" cx="579.7" cy="566.1" rx="39.4" ry="38.8"/>
				</defs>
				<clipPath id="SVGID_6_">
					<use xlink:href="#SVGID_5_"  style="overflow:visible;"/>
				</clipPath>
				<g class="st31">
					<g>
						<g>
							<path class="st32" d="M563.3,555.8v3.8l3.8,3.3c0,0-0.2-9-0.4-8.9C566.5,554.1,563.3,555.8,563.3,555.8z"/>
							<path class="st32" d="M596,555.8v3.8l-3.8,3.3c0,0,0.2-9,0.4-8.9C592.9,554.1,596,555.8,596,555.8z"/>
						</g>
						<g>
							<path class="st22" d="M563.4,557.3c-0.9,0.2-1.2,2-0.7,4c0.5,2,1.6,3.4,2.4,3.2c0.9-0.2,1.2-2,0.7-4
								C565.3,558.5,564.2,557.1,563.4,557.3z"/>
							<path class="st22" d="M595.9,557.3c-0.9-0.2-1.9,1.2-2.4,3.2c-0.5,2-0.2,3.8,0.7,4c0.9,0.2,1.9-1.2,2.4-3.2
								C597.1,559.3,596.8,557.5,595.9,557.3z"/>
						</g>
						<rect x="575.8" y="572.3" class="st22" width="7.7" height="9.5"/>
						<ellipse class="st23" cx="579.7" cy="557.8" rx="14.7" ry="16.2"/>
						<path class="st32" d="M579.7,537.8c-12,0-16.5,10.5-16.5,16.3v2.3c10-1.5,16.5-10.8,16.5-10.8s7.3,9.7,16.5,10.8v-2.3
							C596.1,548.4,591.6,537.8,579.7,537.8z"/>
						<path class="st33" d="M589.5,579.9L589.5,579.9C589.4,579.9,589.4,579.9,589.5,579.9L589.5,579.9c-0.7-0.3-1.4-0.5-2.1-0.7
							c0,0,0,0,0,0c-2.4-0.7-5-1-7.7-1c-2.7,0-5.3,0.4-7.7,1c0,0,0,0,0,0c-0.7,0.2-1.4,0.4-2.1,0.7l0,0c0,0,0,0-0.1,0l0,0
							c-6,2.3-10.1,7-10.1,13.5v11.5h39.7v-11.5C599.5,587,595.5,582.3,589.5,579.9z"/>
						<g>
							<path class="st34" d="M568.1,556.7c0,0,3.5-1.2,10.2-0.2h2.5c0,0,4.9-0.8,10.2,0.2c0,0,0.6,1.6,0.2,3.4
								c-0.4,1.8-0.5,3.6-2.2,3.8c-1.7,0.2-4.8,0.4-5.6,0c0,0-1.6-1.9-2.1-2.7c-0.4-0.9-1-2.9-1-2.9H579l-0.7,1.2c0,0-1,3.6-2.6,4.3
								c-1.6,0.7-5.2,0.2-5.8,0.1c-0.6-0.1-1.5-1.1-2-2.9C567.6,559,568.1,556.7,568.1,556.7z"/>
							<path class="st35" d="M591.8,556c-0.7-0.1-4.5-0.3-6.4-0.3s-3.2,0.2-5.7,0.3c-2.5-0.1-3.8-0.3-5.7-0.3
								c-1.9,0-5.7,0.2-6.4,0.3c-0.7,0.1-1.1,0.1-1.1,0.6s0.2,1.9,0.2,1.9c1,0.5,0.9,2.2,1.3,3.3c0.3,1.2,0.6,1.7,1.8,2.2
								c1.2,0.5,3.6,0.4,4.6,0.4c1-0.1,2-0.3,2.6-1.2s1.6-2.8,1.8-3.4c0.4-1.1,0.5-1.3,1-1.3c0.5,0,0.7,0.2,1,1.3
								c0.2,0.6,1.1,2.6,1.8,3.4c0.7,0.9,1.6,1.1,2.6,1.2c1,0.1,3.5,0.1,4.6-0.4c1.2-0.5,1.4-1.1,1.8-2.2c0.3-1.2,0.2-2.8,1.3-3.3
								c0,0,0.2-1.4,0.2-1.9S592.5,556.1,591.8,556z M576.9,562c-0.6,1-1.1,1.4-2.3,1.6c-1.2,0.2-2.7,0.1-3.8,0
								c-1.1-0.1-1.7-0.6-2-1.2c-0.3-0.6-0.6-2.6-0.6-3.5c0-0.9,0-1.6,0.5-1.8c0.5-0.2,1.5-0.5,4-0.6c1.1,0,4.8,0.1,5.1,1
								C578.4,558.7,577.6,561,576.9,562z M591,558.9c0,0.9-0.3,2.9-0.6,3.5c-0.3,0.6-0.9,1.1-2,1.2c-1.1,0.1-2.6,0.2-3.8,0
								c-1.2-0.2-1.6-0.6-2.3-1.6c-0.6-1-1.5-3.4-1-4.6c0.3-0.8,4-1,5.1-1c2.5,0.1,3.5,0.3,4,0.6C591,557.3,591,558,591,558.9z"/>
						</g>
						<g>
							<path class="st35" d="M567.5,557.1c0,0.2-0.2,0.4-0.4,0.4h-2.4c-0.2,0-0.4-0.2-0.4-0.4l0,0c0-0.2,0.2-0.4,0.4-0.4h2.4
								C567.3,556.7,567.5,556.9,567.5,557.1L567.5,557.1z"/>
							<path class="st35" d="M595.1,557.1c0,0.2-0.2,0.4-0.4,0.4h-2.4c-0.2,0-0.4-0.2-0.4-0.4l0,0c0-0.2,0.2-0.4,0.4-0.4h2.4
								C594.9,556.7,595.1,556.9,595.1,557.1L595.1,557.1z"/>
						</g>
						<g>
							<polygon class="st36" points="579.7,578.2 575.5,583.7 571.6,579.2 574.8,576.6 							"/>
							<polygon class="st36" points="579.7,578.2 583.8,583.7 587.7,579.2 584.5,576.6 							"/>
						</g>
						<path class="st32" d="M580.3,543.8c0,0-1.9,7.2-7.3,11.3c0,0,3.3-3.4,1.2-6.7L580.3,543.8z"/>
					</g>
					<path class="st25" d="M579.6,537.8c-11.9,0-16.4,10.5-16.4,16.3v2.3c0,0,0,0,0.1,0v0.9c-0.8,0.3-1,2-0.6,3.9
						c0.5,2,1.6,3.4,2.4,3.2c0.4-0.1,0.6-0.5,0.8-1c1.7,4.8,5.3,8.6,9.9,9.9v3.5l-0.9-0.3l-3.3,2.6l0.1,0.1
						c-0.6,0.2-1.2,0.4-1.8,0.6l0,0c0,0,0,0-0.1,0c0,0,0,0,0,0c-6,2.3-10.1,7-10.1,13.5v11.5h19.8V537.8z"/>
				</g>
				<use xlink:href="#SVGID_5_"  style="overflow:visible;fill:none;stroke:#FFFFFF;stroke-width:2;stroke-miterlimit:10;"/>
			</g>
		</g>
		<g>
			<ellipse class="st37" cx="510.8" cy="298.4" rx="39.4" ry="38.8"/>
			<g>
				<defs>
					<ellipse id="SVGID_7_" cx="510.8" cy="298.4" rx="39.4" ry="38.8"/>
				</defs>
				<clipPath id="SVGID_8_">
					<use xlink:href="#SVGID_7_"  style="overflow:visible;"/>
				</clipPath>
				<g class="st38">
					<g>
						<g>
							<path class="st39" d="M494.4,287.1v4.5l3.8,4c0,0-0.2-10.7-0.4-10.6C497.6,285,494.4,287.1,494.4,287.1z"/>
							<path class="st39" d="M527.2,287.1v4.5l-3.8,4c0,0,0.2-10.7,0.4-10.6C524,285,527.2,287.1,527.2,287.1z"/>
						</g>
						<g>
							<path class="st22" d="M494.5,289.9c-0.9,0.2-1.2,2-0.7,4c0.5,2,1.6,3.4,2.4,3.2c0.9-0.2,1.2-2,0.7-4
								C496.5,291.2,495.4,289.7,494.5,289.9z"/>
							<path class="st22" d="M527.1,289.9c-0.9-0.2-1.9,1.2-2.4,3.2c-0.5,2-0.2,3.8,0.7,4c0.9,0.2,1.9-1.2,2.4-3.2
								S528,290.1,527.1,289.9z"/>
						</g>
						<rect x="507" y="305" class="st22" width="7.7" height="9.5"/>
						<ellipse class="st23" cx="510.8" cy="290.4" rx="14.7" ry="16.2"/>
						<path class="st40" d="M520.6,312.6L520.6,312.6C520.6,312.6,520.6,312.6,520.6,312.6L520.6,312.6c-0.7-0.3-1.4-0.5-2.1-0.7
							c0,0,0,0,0,0c-2.4-0.7-5-1-7.7-1s-5.3,0.4-7.7,1c0,0,0,0,0,0c-0.7,0.2-1.4,0.4-2.1,0.7l0,0c0,0,0,0-0.1,0l0,0
							c-6,2.3-10.1,7-10.1,13.5v11.5h39.7v-11.5C530.7,319.6,526.6,314.9,520.6,312.6z"/>
						<path class="st39" d="M510.8,270.1c-11.2,0-16.4,6.4-16.4,13.6c0,1.9,0,5.4,0,5.4c3,0.5,5.2-4.1,5.2-4.1
							c0.6,2.6,2.8,4.1,2.8,4.1c-0.7-3.1,1.7-7.3,1.7-7.3c-0.1,2.9,1.5,6.4,1.5,6.4c0.5-2.7,5.1-8.3,5.1-8.3s4.7,5.7,5.1,8.3
							c0,0,1.6-3.5,1.5-6.4c0,0,2.4,4.3,1.7,7.3c0,0,2.3-1.6,2.8-4.1c0,0,2.3,4.6,5.2,4.1c0,0,0-3.5,0-5.4
							C527.2,276.5,522.1,270.1,510.8,270.1z"/>
						<rect x="506.1" y="307.2" class="st41" width="9.3" height="4"/>
					</g>
					<g>
						<path class="st39" d="M505.5,297.8c-3.2,2.1-4.5-0.7-4.5-0.7s2.8,6.6,9.8,2.7v-3.1C510.8,296.7,508.7,295.7,505.5,297.8z"/>
						<path class="st39" d="M516.1,297.8c-3.2-2.1-5.3-1.1-5.3-1.1v3.1c7.1,4,9.8-2.7,9.8-2.7S519.3,299.9,516.1,297.8z"/>
					</g>
					<path class="st25" d="M510.8,270.1c-11.2,0-16.4,6.4-16.4,13.6c0,0.9,0,2.3,0,3.4v2v0.9c-0.8,0.3-1,2-0.6,3.9
						c0.5,2,1.6,3.4,2.4,3.2c0.4-0.1,0.6-0.5,0.8-1c1.7,4.8,5.3,8.6,9.9,9.9v1.2h-0.8v4h0.1c-1.1,0.2-2.1,0.4-3.1,0.7c0,0,0,0,0,0
						c-0.7,0.2-1.4,0.4-2.1,0.7l0,0c0,0,0,0-0.1,0l0,0c-6,2.3-10.1,7-10.1,13.5v11.5h19.9V270.1z"/>
				</g>
				<use xlink:href="#SVGID_7_"  style="overflow:visible;fill:none;stroke:#FFFFFF;stroke-width:2;stroke-miterlimit:10;"/>
			</g>
		</g>
		<g>
			<ellipse class="st42" cx="424.3" cy="623.2" rx="39.4" ry="38.8"/>
			<g>
				<defs>
					<ellipse id="SVGID_9_" cx="424.3" cy="623.2" rx="39.4" ry="38.8"/>
				</defs>
				<clipPath id="SVGID_10_">
					<use xlink:href="#SVGID_9_"  style="overflow:visible;"/>
				</clipPath>
				<g class="st43">
					<g>
						<path class="st44" d="M442.1,623.2c0-1.8,0-8,0-8l-17.9-0.5l-17.9,0.5c0,0,0,6.2,0,8c0,9-4.4,10.4-8.2,8.9
							c0,0,3.2,11.9,26,11.9s26-11.9,26-11.9C446.5,633.7,442.1,632.2,442.1,623.2z"/>
						<g>
							<path class="st22" d="M408,614.8c-0.9,0.2-1.2,2-0.7,4c0.5,2,1.6,3.4,2.4,3.2c0.9-0.2,1.2-2,0.7-4
								C409.9,616,408.8,614.6,408,614.8z"/>
							<path class="st22" d="M440.5,614.8c-0.9-0.2-1.9,1.2-2.4,3.2c-0.5,2-0.2,3.8,0.7,4c0.9,0.2,1.9-1.2,2.4-3.2
								C441.7,616.8,441.4,615,440.5,614.8z"/>
						</g>
						<rect x="420.4" y="629.8" class="st22" width="7.7" height="9.5"/>
						<ellipse class="st23" cx="424.3" cy="615.3" rx="14.7" ry="16.2"/>
						<path class="st45" d="M434.1,637.4L434.1,637.4C434,637.4,434,637.4,434.1,637.4L434.1,637.4c-0.7-0.3-1.4-0.5-2.1-0.7
							c0,0,0,0,0,0c-2.4-0.7-5-1-7.7-1c-2.7,0-5.3,0.4-7.7,1c0,0,0,0,0,0c-0.7,0.2-1.4,0.4-2.1,0.7l0,0c0,0,0,0-0.1,0l0,0
							c-6,2.3-10.1,7-10.1,13.5v11.5h39.7V651C444.1,644.4,440.1,639.8,434.1,637.4z"/>
						<path class="st44" d="M424.3,595.5c-14.1,0-17.9,8.1-17.9,15.6v3.8v4.2c3.4-1.6,6.1-8.4,6.1-8.4c0.4,3.3-2.7,7.6-2.7,7.6
							c5.3-3.5,8.6-8.7,8.6-8.7c-0.2,5-3.8,8.7-3.8,8.7c7.2-5.5,9.6-13.2,9.6-13.2s2.4,7.7,9.6,13.2c0,0-3.5-3.7-3.8-8.7
							c0,0,3.3,5.1,8.6,8.7c0,0-3-4.3-2.7-7.6c0,0,2.7,6.7,6.1,8.4v-4.2v-3.8C442.1,603.6,438.4,595.5,424.3,595.5z"/>
						<g>
							<path class="st46" d="M424.3,635.7c0,0-1.1,4.9-5.8,5.5c-4.9,0.6-5.8-3.2-5.8-3.2l6.3-4.3L424.3,635.7z"/>
							<path class="st46" d="M424.3,635.7c0,0,1.1,4.9,5.8,5.5c4.9,0.6,5.8-3.2,5.8-3.2l-6.3-4.3L424.3,635.7z"/>
						</g>
					</g>
					<path class="st25" d="M404.4,662.4h19.9v-66.9c-14.1,0-17.9,8.1-17.9,15.6v3.8v0.3c0,0,0,1.9,0,3.9c0,1.6,0,3.3,0,4.1
						c0,9-4.4,10.4-8.2,8.9c0,0,1.5,5.7,10.1,9.2c-2.5,2.5-3.9,5.7-3.9,9.6V662.4z"/>
				</g>
				<use xlink:href="#SVGID_9_"  style="overflow:visible;fill:none;stroke:#FFFFFF;stroke-width:2;stroke-miterlimit:10;"/>
			</g>
		</g>
		<g>
			<ellipse class="st47" cx="362.6" cy="237" rx="39.4" ry="38.8"/>
			<g>
				<defs>
					<ellipse id="SVGID_11_" cx="362.6" cy="237" rx="39.4" ry="38.8"/>
				</defs>
				<clipPath id="SVGID_12_">
					<use xlink:href="#SVGID_11_"  style="overflow:visible;"/>
				</clipPath>
				<g class="st48">
					<g>
						<g>
							<path class="st49" d="M344,228.1c0,0-5.4,9.4,0.7,11.3c0,0-3.8,6.1,2.1,8.3c4.8,1.7,6.6-1.1,6.6-1.1s9.6,3.3,7.4-7.1
								C358.9,230.1,344,228.1,344,228.1z"/>
							<path class="st49" d="M381.1,228.1c0,0,5.4,9.4-0.7,11.3c0,0,3.8,6.1-2.1,8.3c-4.8,1.7-6.6-1.1-6.6-1.1s-9.6,3.3-7.4-7.1
								C366.3,230.1,381.1,228.1,381.1,228.1z"/>
						</g>
						<g>
							<path class="st22" d="M346.3,228.9c-0.9,0.2-1.2,2-0.7,4c0.5,2,1.6,3.4,2.4,3.2c0.9-0.2,1.2-2,0.7-4S347.1,228.7,346.3,228.9
								z"/>
							<path class="st22" d="M378.8,228.9c-0.9-0.2-1.9,1.2-2.4,3.2c-0.5,2-0.2,3.8,0.7,4c0.9,0.2,1.9-1.2,2.4-3.2
								C380,230.9,379.7,229.1,378.8,228.9z"/>
						</g>
						<rect x="358.7" y="244" class="st22" width="7.7" height="9.5"/>
						<ellipse class="st23" cx="362.6" cy="229.4" rx="14.7" ry="16.2"/>
						<path class="st49" d="M379.7,224.9c0,0,0.9-10.8-5.6-11.9c0,0-1.9-6.7-11.6-3.6c-9.7-3.1-11.6,3.6-11.6,3.6
							c-6.4,1.1-5.6,11.9-5.6,11.9c-2.2-0.3-3.2,3.3-1.4,4.5c6,3.9,10.9-4.2,10.9-4.2c7,1.1,7.7-4.8,7.7-4.8s0.7,5.9,7.7,4.8
							c0,0,4.9,8.1,10.9,4.2C383,228.2,381.9,224.6,379.7,224.9z"/>
						<path class="st23" d="M373.6,257.1v-5c-0.4-0.2-0.8-0.4-1.3-0.6l0,0c0,0,0,0-0.1,0c0,0,0,0,0,0c-0.7-0.3-1.4-0.5-2.1-0.7
							c0,0,0,0,0,0c-2.4-0.7-5-1-7.7-1c-2.7,0-5.3,0.4-7.7,1c0,0,0,0,0,0c-0.7,0.2-1.4,0.4-2.1,0.7h0c0,0,0,0-0.1,0l0,0
							c-0.4,0.2-0.9,0.4-1.3,0.6v5l11.1,7.5L373.6,257.1z"/>
						<path class="st50" d="M373.6,252.1v5l-11.1,7.5l-11.1-7.5v-5c-5.3,2.5-8.8,6.9-8.8,13v11.5h39.7v-11.5c0-6-3.4-10.4-8.6-12.9
							L373.6,252.1z"/>
					</g>
					<path class="st25" d="M342.7,265.1v11.5h19.9v-67.1c-9.7-3.1-11.6,3.6-11.6,3.6c-6.4,1.1-5.6,11.9-5.6,11.9
						c-2-0.3-3,2.7-1.9,4.1c-1.2,2.4-3.7,8.8,1.2,10.3c0,0-3.8,6.1,2.1,8.3c4.8,1.7,6.6-1.1,6.6-1.1s3,1,5.3,0.1v3.4
						c-1.3,0.2-2.6,0.4-3.8,0.8c0,0,0,0,0,0c-0.7,0.2-1.4,0.4-2.1,0.7h0c0,0,0,0-0.1,0l0,0c-0.4,0.2-0.9,0.4-1.3,0.6
						C346.2,254.6,342.7,259.1,342.7,265.1z"/>
				</g>
				<use xlink:href="#SVGID_11_"  style="overflow:visible;fill:none;stroke:#FFFFFF;stroke-width:2;stroke-miterlimit:10;"/>
			</g>
		</g>
		<g>
			<ellipse class="st51" cx="190.7" cy="454.7" rx="39.4" ry="38.8"/>
			<g>
				<defs>
					<ellipse id="SVGID_13_" cx="190.7" cy="454.7" rx="39.4" ry="38.8"/>
				</defs>
				<clipPath id="SVGID_14_">
					<use xlink:href="#SVGID_13_"  style="overflow:visible;"/>
				</clipPath>
				<g class="st52">
					<g>
						<path class="st28" d="M173.2,445.9v15.6c0,8.2,7.8,14.9,17.5,14.9c9.7,0,17.5-6.7,17.5-14.9v-15.6H173.2z"/>
						<g>
							<path class="st22" d="M174.4,445.9c-0.9,0.2-1.2,2-0.7,4c0.5,2,1.6,3.4,2.4,3.2c0.9-0.2,1.2-2,0.7-4
								C176.3,447.2,175.2,445.7,174.4,445.9z"/>
							<path class="st22" d="M206.9,445.9c-0.9-0.2-1.9,1.2-2.4,3.2c-0.5,2-0.2,3.8,0.7,4c0.9,0.2,1.9-1.2,2.4-3.2
								C208.1,447.9,207.8,446.1,206.9,445.9z"/>
						</g>
						<rect x="186.8" y="461" class="st22" width="7.7" height="9.5"/>
						<ellipse class="st23" cx="190.7" cy="446.4" rx="14.7" ry="16.2"/>
						<path class="st28" d="M190.7,426.5c-12.7,0-17.5,12.4-17.5,19.2v2.7c10.3-1.7,17.5-13.4,17.5-13.4s7.2,11.7,17.5,13.4v-2.7
							C208.1,438.9,203.4,426.5,190.7,426.5z"/>
						<path class="st23" d="M200.5,468.6C200.5,468.6,200.5,468.6,200.5,468.6C200.5,468.6,200.4,468.6,200.5,468.6L200.5,468.6
							c-0.7-0.3-1.4-0.5-2.1-0.7c0,0,0,0,0,0c-2.4-0.7-5-1-7.7-1c-2.7,0-5.3,0.4-7.7,1c0,0,0,0,0,0c-0.7,0.2-1.4,0.4-2.1,0.7l0,0
							c0,0,0,0-0.1,0c0,0,0,0,0,0c-6,2.3-10.1,7-10.1,13.5v11.5h39.7v-11.5C210.5,475.6,206.5,470.9,200.5,468.6z"/>
						<rect x="177.8" y="473.5" class="st53" width="25.8" height="20.1"/>
						<path class="st23" d="M199.3,473c0,3.5-3.9,6.3-8.6,6.3c-4.8,0-8.6-2.8-8.6-6.3c0-3.5,3.9-6.3,8.6-6.3
							C195.4,466.7,199.3,469.5,199.3,473z"/>
						<g>
							<path class="st53" d="M180.9,468.5L180.9,468.5C180.9,468.5,180.9,468.5,180.9,468.5C180.9,468.5,180.9,468.5,180.9,468.5
								c-1.1,0.4-2.2,1-3.1,1.5v23.5h4.3v-25.5C181.7,468.2,181.3,468.3,180.9,468.5z"/>
							<path class="st53" d="M200.5,468.5C200.5,468.5,200.5,468.5,200.5,468.5C200.5,468.5,200.4,468.5,200.5,468.5L200.5,468.5
								c-0.4-0.2-0.8-0.3-1.2-0.4v25.5h4.3V470C202.6,469.4,201.6,468.9,200.5,468.5z"/>
						</g>
					</g>
					<path class="st25" d="M173.2,445.7v0.2v2.5v13.1c0,3.5,1.4,6.6,3.7,9.2c-3.8,2.6-6.1,6.5-6.1,11.4v11.5h7h4.3h8.6v-67.1
						C178,426.5,173.2,438.9,173.2,445.7z"/>
				</g>
				<use xlink:href="#SVGID_13_"  style="overflow:visible;fill:none;stroke:#FFFFFF;stroke-width:2;stroke-miterlimit:10;"/>
			</g>
		</g>
		<g>
			<ellipse class="st54" cx="260.6" cy="561.1" rx="39.4" ry="38.8"/>
			<g>
				<defs>
					<ellipse id="SVGID_15_" cx="260.6" cy="561.1" rx="39.4" ry="38.8"/>
				</defs>
				<clipPath id="SVGID_16_">
					<use xlink:href="#SVGID_15_"  style="overflow:visible;"/>
				</clipPath>
				<g class="st55">
					<g>
						<g>
							<path class="st56" d="M244.2,550.7v3.8l3.8,3.3c0,0-0.2-9-0.4-8.9C247.4,549,244.2,550.7,244.2,550.7z"/>
							<path class="st56" d="M277,550.7v3.8l-3.8,3.3c0,0,0.2-9,0.4-8.9C273.8,549,277,550.7,277,550.7z"/>
						</g>
						<g>
							<path class="st22" d="M244.4,552.2c-0.9,0.2-1.2,2-0.7,4c0.5,2,1.6,3.4,2.4,3.2c0.9-0.2,1.2-2,0.7-4
								C246.3,553.5,245.2,552,244.4,552.2z"/>
							<path class="st22" d="M276.9,552.2c-0.9-0.2-1.9,1.2-2.4,3.2c-0.5,2-0.2,3.8,0.7,4c0.9,0.2,1.9-1.2,2.4-3.2
								C278.1,554.2,277.8,552.4,276.9,552.2z"/>
						</g>
						<rect x="256.8" y="567.3" class="st22" width="7.7" height="9.5"/>
						<ellipse class="st23" cx="260.6" cy="552.7" rx="14.7" ry="16.2"/>
						<path class="st56" d="M260.6,532.8c-12,0-16.5,10.5-16.5,16.3v2.3c9.7-1.4,16.5-10.1,16.5-10.1s6.8,8.6,16.5,10.1v-2.3
							C277.1,543.3,272.6,532.8,260.6,532.8z"/>
						<path class="st57" d="M270.4,574.9L270.4,574.9C270.4,574.9,270.4,574.9,270.4,574.9L270.4,574.9c-0.7-0.3-1.4-0.5-2.1-0.7
							c-1.3,2.1-4.2,3.7-7.7,3.7c-3.5,0-6.4-1.5-7.7-3.7c-0.7,0.2-1.4,0.4-2.1,0.7l0,0c0,0,0,0-0.1,0l0,0c-6,2.3-10.1,7-10.1,13.5
							v11.5h39.7v-11.5C280.5,581.9,276.4,577.2,270.4,574.9z"/>
						<path class="st23" d="M268.4,574.2c-2.4-0.7-5-1.1-7.7-1.1c-2.8,0-5.4,0.4-7.7,1.1c1.2,2.1,4.2,3.6,7.7,3.6
							C264.1,577.9,267.1,576.4,268.4,574.2z"/>
						<path class="st56" d="M275.3,551.4c0,0-1.1,8.6-5.6,11c0,0-2.6-3.4-9.1-2.1c-6.6-1.4-9.1,2.1-9.1,2.1c-4.5-2.3-5.6-11-5.6-11
							s-1.6,6.2,0,11.5c2.9,9.3,11.9,13.4,14.7,13.4c2.8,0,11.8-4,14.7-13.4C277,557.6,275.3,551.4,275.3,551.4z M260.6,566
							c-3.3,0-4.5-2.6-4.5-2.6c2.3,0.3,4.5,0,4.5,0s2.2,0.3,4.5,0C265.1,563.4,263.9,566,260.6,566z"/>
						<path class="st58" d="M269.6,574.6c-0.4-0.1-0.8-0.3-1.3-0.4c-1.3,2.1-4.2,3.7-7.7,3.7c-3.5,0-6.4-1.5-7.7-3.7
							c-0.4,0.1-0.8,0.3-1.3,0.4v25.3h17.9V574.6z"/>
					</g>
					<path class="st25" d="M260.6,532.8c-12,0-16.5,10.5-16.5,16.3v2.3c0,0,0,0,0.1,0v0.9c-0.8,0.3-1,2-0.6,3.9c0.3,1.4,1,2.5,1.6,3
						c0.1,1.2,0.3,2.5,0.7,3.7c1.6,5.3,5.2,8.8,8.5,10.9c-0.5,0.1-1,0.2-1.5,0.4c0,0,0,0,0,0c-0.4,0.1-0.8,0.3-1.3,0.4
						c-0.3,0.1-0.5,0.2-0.8,0.3l0,0c0,0,0,0-0.1,0l0,0c-6,2.3-10.1,7-10.1,13.5v11.5h10.9h9V532.8z"/>
				</g>
				<use xlink:href="#SVGID_15_"  style="overflow:visible;fill:none;stroke:#FFFFFF;stroke-width:2;stroke-miterlimit:10;"/>
			</g>
		</g>
		<g>
			<ellipse class="st59" cx="265.9" cy="364.9" rx="9.6" ry="9.5"/>
			<path class="st11" d="M270.9,363.6h-3.6v-3.7c0-0.8-0.6-1.4-1.4-1.4c-0.7,0-1.4,0.6-1.4,1.4v3.7h-3.6c-0.7,0-1.4,0.6-1.4,1.4
				c0,0.8,0.6,1.4,1.4,1.4h3.6v3.7c0,0.8,0.6,1.4,1.4,1.4c0.7,0,1.4-0.6,1.4-1.4v-3.7h3.6c0.7,0,1.4-0.6,1.4-1.4
				C272.3,364.2,271.7,363.6,270.9,363.6z"/>
		</g>
		<g>
			<ellipse class="st59" cx="465.4" cy="632.9" rx="9.6" ry="9.5"/>
			<path class="st11" d="M470.4,631.5h-3.6v-3.7c0-0.8-0.6-1.4-1.4-1.4c-0.7,0-1.4,0.6-1.4,1.4v3.7h-3.6c-0.7,0-1.4,0.6-1.4,1.4
				c0,0.8,0.6,1.4,1.4,1.4h3.6v3.7c0,0.8,0.6,1.4,1.4,1.4c0.7,0,1.4-0.6,1.4-1.4v-3.7h3.6c0.7,0,1.4-0.6,1.4-1.4
				C471.7,632.1,471.1,631.5,470.4,631.5z"/>
		</g>
		<g>
			<ellipse class="st59" cx="636.1" cy="416.3" rx="9.6" ry="9.5"/>
			<polygon class="st11" points="636.1,410.5 637.6,414.8 642.3,414.9 638.6,417.7 639.9,422.1 636.1,419.5 632.2,422.1 
				633.6,417.7 629.8,414.9 634.5,414.8 			"/>
		</g>
		<g>
			<g>
				<path class="st11" d="M576.8,252.7c0,1.3-1.1,2.3-2.3,2.3h-39.6c-1.3,0-2.3-1-2.3-2.3v-20.4c0-1.3,1.1-2.3,2.3-2.3h39.6
					c1.3,0,2.3,1,2.3,2.3V252.7z"/>
				<polygon class="st11" points="554.4,251.5 544.5,265.3 544.5,250.6 				"/>
			</g>
			<g>
				<path class="st60" d="M544.6,243c0,1.3-1.1,2.4-2.4,2.4c-1.3,0-2.4-1.1-2.4-2.4c0-1.3,1.1-2.4,2.4-2.4
					C543.6,240.6,544.6,241.7,544.6,243z"/>
				<path class="st60" d="M552.9,243c0,1.3-1.1,2.4-2.4,2.4c-1.3,0-2.4-1.1-2.4-2.4c0-1.3,1.1-2.4,2.4-2.4
					C551.9,240.6,552.9,241.7,552.9,243z"/>
				<path class="st60" d="M561.2,243c0,1.3-1.1,2.4-2.4,2.4c-1.3,0-2.4-1.1-2.4-2.4c0-1.3,1.1-2.4,2.4-2.4
					C560.2,240.6,561.2,241.7,561.2,243z"/>
				<path class="st60" d="M569.5,243c0,1.3-1.1,2.4-2.4,2.4c-1.3,0-2.4-1.1-2.4-2.4c0-1.3,1.1-2.4,2.4-2.4
					C568.4,240.6,569.5,241.7,569.5,243z"/>
			</g>
		</g>
		<g>
			<g>
				<path class="st11" d="M157.8,392.5c0,1.3,1.1,2.3,2.3,2.3h39.6c1.3,0,2.3-1,2.3-2.3v-20.4c0-1.3-1.1-2.3-2.3-2.3h-39.6
					c-1.3,0-2.3,1-2.3,2.3V392.5z"/>
				<polygon class="st11" points="180.2,391.4 190.2,405.1 190.2,390.4 				"/>
			</g>
			<g>
				<path class="st60" d="M190,382.9c0,1.3,1.1,2.4,2.4,2.4c1.3,0,2.4-1.1,2.4-2.4c0-1.3-1.1-2.4-2.4-2.4
					C191.1,380.5,190,381.6,190,382.9z"/>
				<path class="st60" d="M181.7,382.9c0,1.3,1.1,2.4,2.4,2.4c1.3,0,2.4-1.1,2.4-2.4c0-1.3-1.1-2.4-2.4-2.4
					C182.8,380.5,181.7,381.6,181.7,382.9z"/>
				<path class="st60" d="M173.4,382.9c0,1.3,1.1,2.4,2.4,2.4c1.3,0,2.4-1.1,2.4-2.4c0-1.3-1.1-2.4-2.4-2.4
					C174.5,380.5,173.4,381.6,173.4,382.9z"/>
				<path class="st60" d="M165.1,382.9c0,1.3,1.1,2.4,2.4,2.4c1.3,0,2.4-1.1,2.4-2.4c0-1.3-1.1-2.4-2.4-2.4
					C166.2,380.5,165.1,381.6,165.1,382.9z"/>
			</g>
		</g>
		<polygon class="st11" points="265.9,249.6 267.8,254.3 272.5,256.1 267.8,258 265.9,262.7 264,258 259.3,256.1 264,254.3 		"/>
		<g>
			<path class="st11" d="M625.1,561.8c0,4.9-4,8.9-9,8.9c-5,0-9-4-9-8.9c0-4.9,4-8.9,9-8.9C621.1,552.9,625.1,556.9,625.1,561.8z"/>
			<ellipse class="st11" cx="648.6" cy="561.8" rx="9" ry="8.9"/>
			<ellipse class="st11" cx="626.4" cy="550.7" rx="12.1" ry="11.9"/>
			<ellipse class="st11" cx="640.7" cy="554.5" rx="10" ry="9.9"/>
			<rect x="616.1" y="560.4" class="st11" width="32.7" height="10.3"/>
		</g>
		<g>
			<path class="st11" d="M232,320.7c0,4.9-4,8.9-9,8.9c-5,0-9-4-9-8.9c0-4.9,4-8.9,9-8.9C228,311.8,232,315.8,232,320.7z"/>
			<path class="st11" d="M264.5,320.7c0,4.9-4,8.9-9,8.9c-5,0-9-4-9-8.9c0-4.9,4-8.9,9-8.9C260.5,311.8,264.5,315.8,264.5,320.7z"/>
			<ellipse class="st11" cx="233.3" cy="309.6" rx="12.1" ry="11.9"/>
			<ellipse class="st11" cx="247.6" cy="313.5" rx="10" ry="9.9"/>
			<rect x="223" y="319.3" class="st11" width="32.7" height="10.3"/>
		</g>
		<g>
			<path class="st61" d="M214.1,595.9c0,1.5-1.3,2.8-2.9,2.8h-29.8c-1.6,0-2.9-1.3-2.9-2.8v-18c0-1.5,1.3-2.8,2.9-2.8h29.8
				c1.6,0,2.9,1.3,2.9,2.8V595.9z"/>
			<g>
				<path class="st11" d="M196.3,587l15.7-9.6c-0.4-0.4-0.9-0.7-1.5-0.7h-28.4c-0.6,0-1.1,0.3-1.5,0.7L196.3,587z"/>
				<g>
					<path class="st11" d="M212.5,595.2c0,0,0-0.1,0-0.1v-16.2l-11.4,7.3L212.5,595.2z"/>
					<path class="st11" d="M191.5,586.1l-11.4-7.3V595c0,0,0,0.1,0,0.1L191.5,586.1z"/>
					<path class="st11" d="M200.1,586.6l-3.5,1.9c-0.1,0.1-0.2,0.1-0.4,0.1c-0.1,0-0.3,0-0.4-0.1l-3.5-1.9l-12,9.6
						c0.4,0.5,1,0.8,1.6,0.8h28.4c0.7,0,1.3-0.3,1.6-0.8L200.1,586.6z"/>
				</g>
			</g>
		</g>
		<path class="st59" d="M405,246.1c-4.1,0-5.6,3.7-5.6,3.7s-1.5-3.7-5.6-3.7c-4.1,0-4.8,3.6-4.8,5.4c0,5.1,10.4,11.4,10.4,11.4
			s10.4-6.3,10.4-11.4C409.8,249.7,409.1,246.1,405,246.1z"/>
		<g>
			<g>
				<path class="st62" d="M477.2,570c0,1,0.9,1.9,1.9,1.9h32.5c1.1,0,1.9-0.9,1.9-1.9v-16.7c0-1-0.9-1.9-1.9-1.9h-32.5
					c-1.1,0-1.9,0.9-1.9,1.9V570z"/>
				<polygon class="st62" points="495.6,569.1 503.8,580.4 503.8,568.3 				"/>
			</g>
			<g>
				<path class="st11" d="M491.9,577.3c0,1-0.9,1.9-1.9,1.9h-32.5c-1.1,0-1.9-0.9-1.9-1.9v-16.7c0-1,0.9-1.9,1.9-1.9h32.5
					c1.1,0,1.9,0.9,1.9,1.9V577.3z"/>
				<polygon class="st11" points="473.5,576.4 465.3,587.7 465.3,575.6 				"/>
			</g>
		</g>
		<ellipse class="st12" cx="273.6" cy="468.7" rx="2.2" ry="2.2"/>
		<g>
			<g>
				<g>
					<g>
						<ellipse class="st11" cx="288.9" cy="435.3" rx="9.7" ry="9.5"/>
						<path class="st11" d="M298.6,438.7v-3.4h-19.3c0,0,0,1.9,0,3.9c0,8.8-6.8,9.6-8.5,8.3c0,0,2.2,6.7,12.9,6.7
							C291.2,454.2,298.6,446.9,298.6,438.7z"/>
					</g>
					<polygon class="st11" points="297.3,433.4 303.5,436.6 296.2,439.6 					"/>
				</g>
				<path class="st63" d="M293.6,435.3c0,2-1.7,3.7-3.7,3.7c-2.1,0-3.7-1.6-3.7-3.7c0-2,1.7-3.7,3.7-3.7
					C291.9,431.6,293.6,433.2,293.6,435.3z"/>
			</g>
			<path class="st11" d="M283.6,436.8c0,0-4.8,1.3-10-2.7c0,0-2.5,8.2,7,9.2L283.6,436.8z"/>
		</g>
		<g>
			<path class="st11" d="M621.8,355.3c0,2.9-2.4,5.3-5.4,5.3c-3,0-5.4-2.4-5.4-5.3s2.4-5.3,5.4-5.3
				C619.4,350,621.8,352.4,621.8,355.3z"/>
			<g>
				<path class="st11" d="M646.7,345.4c0,2.9-2.4,5.3-5.4,5.3s-5.4-2.4-5.4-5.3c0-2.9,2.4-5.3,5.4-5.3S646.7,342.5,646.7,345.4z"/>
				<ellipse class="st11" cx="641.3" cy="365.3" rx="5.4" ry="5.3"/>
			</g>
			<g>
				<g>
					<g>
						<polygon class="st11" points="616.8,356.4 616,354.5 641,344.6 641.7,346.5 						"/>
					</g>
				</g>
				<g>
					<g>
						<polygon class="st11" points="641,366.1 616,356.1 616.8,354.2 641.7,364.2 						"/>
					</g>
				</g>
			</g>
		</g>
		<g>
			<g>
				<path class="st11" d="M202.9,271.2c-0.3,0-0.5-0.1-0.6-0.4l-11.7-19.5c0,0,0,0,0-0.1c-1.1-2-1.7-4.3-1.7-6.6
					c0-7.6,6.3-13.8,14-13.8c7.7,0,14,6.2,14,13.8c0,2.3-0.6,4.6-1.7,6.6c0,0,0,0,0,0.1l-11.7,19.5
					C203.4,271,203.2,271.2,202.9,271.2z"/>
			</g>
			<ellipse class="st63" cx="202.9" cy="244.7" rx="8.5" ry="8.3"/>
		</g>
		<g>
			<path class="st11" d="M527.1,653.2c-0.9,0.9-2.3,0.9-3.2,0l0,0c-0.9-0.9-0.9-2.3,0-3.1l16.8-16.6c0.9-0.9,2.3-0.9,3.2,0l0,0
				c0.9,0.9,0.9,2.3,0,3.1L527.1,653.2z"/>
			<ellipse class="st11" cx="544.5" cy="632.9" rx="13.4" ry="13.2"/>
			<ellipse class="st63" cx="544.5" cy="632.9" rx="10.4" ry="10.2"/>
			<path class="st64" d="M548.8,627.6c3,3,3,7.7,0,10.7"/>
			<polygon class="st11" points="524.9,657.7 519.4,652.2 527.5,644.2 533,649.7 			"/>
		</g>
		<g>
			<path class="st11" d="M350.8,665.1c0,2.1-1.8,3.9-3.9,3.9h-29.5c-2.2,0-3.9-1.7-3.9-3.9V636c0-2.1,1.8-3.9,3.9-3.9h29.5
				c2.2,0,3.9,1.7,3.9,3.9V665.1z"/>
			<g>
				<path class="st63" d="M341.5,650.5c0,5.1-4.2,9.2-9.3,9.2s-9.3-4.1-9.3-9.2c0-5.1,4.2-9.2,9.3-9.2S341.5,645.4,341.5,650.5z"/>
				<path class="st64" d="M331.4,644.4c3.8,0,6.9,3.1,6.9,6.8"/>
			</g>
			<ellipse class="st65" cx="332.1" cy="650.5" rx="12.3" ry="12.1"/>
			<path class="st63" d="M347.7,636.8c0,0.7-0.5,1.2-1.2,1.2h-4.6c-0.7,0-1.2-0.5-1.2-1.2l0,0c0-0.7,0.5-1.2,1.2-1.2h4.6
				C347.2,635.7,347.7,636.2,347.7,636.8L347.7,636.8z"/>
			<path class="st11" d="M325.9,629.2c1.4,0,2.6,1.1,2.6,2.6l0,0c0,1.4-1.2,2.6-2.6,2.6h-5.6c-1.4,0-2.6-1.1-2.6-2.6l0,0
				c0-1.4,1.2-2.6,2.6-2.6H325.9z"/>
		</g>
		<g>
			<g>
				<path class="st11" d="M429.1,306.2c-0.2,1-1.2,1.8-2.2,1.8l0,0c-1,0-1.7-0.8-1.5-1.8l5.8-27.3c0.2-1,1.2-1.8,2.2-1.8l0,0
					c1,0,1.7,0.8,1.5,1.8L429.1,306.2z"/>
				<path class="st11" d="M438.5,306.2c-0.2,1-1.2,1.8-2.2,1.8l0,0c-1,0-1.7-0.8-1.5-1.8l5.8-27.3c0.2-1,1.2-1.8,2.2-1.8l0,0
					c1,0,1.7,0.8,1.5,1.8L438.5,306.2z"/>
			</g>
			<g>
				<path class="st11" d="M423,288.5c-1,0-1.7-0.8-1.5-1.8l0,0c0.2-1,1.2-1.8,2.2-1.8h24c1,0,1.7,0.8,1.5,1.8l0,0
					c-0.2,1-1.2,1.8-2.2,1.8H423z"/>
				<path class="st11" d="M421,298.4c-1,0-1.7-0.8-1.5-1.8l0,0c0.2-1,1.2-1.8,2.2-1.8h24c1,0,1.7,0.8,1.5,1.8l0,0
					c-0.2,1-1.2,1.8-2.2,1.8H421z"/>
			</g>
		</g>
		<path class="st11" d="M434.1,184.8c0-1.1-0.8-2.1-1.9-2.4c1.1-0.3,1.9-1.2,1.9-2.4c0-1.3-1.1-2.4-2.5-2.4h-8.4
			c0.5-1.4,1.2-3.3,1.8-5.3c1.1-3.5-0.1-5.2-2.2-5.2c-1.6,0-2.6,1.1-3.4,4.4c-0.8,3.4-3.7,7.8-5.5,9H408v-2.1h-5.3v18.3h5.7v-2.1
			h4.2c2.5,0,3.2,2,4.2,2h3.2h3.5h0.5h0.6h6.8c1.4,0,2.5-1.1,2.5-2.4c0-1.1-0.8-2.1-1.9-2.4c1.1-0.3,1.9-1.2,1.9-2.4
			c0-1.1-0.8-2.1-1.9-2.4C433.3,186.9,434.1,186,434.1,184.8z"/>
		<g>
			<g>
				<path class="st11" d="M519.4,483.8c-3.4,0-6.5,1.4-8.9,3.9c-0.7,0.7-0.7,1.9,0,2.6c0.7,0.7,1.8,0.7,2.5,0c1.7-1.8,4-2.8,6.5-2.8
					c2.4,0,4.7,1,6.5,2.8c0.3,0.4,0.8,0.5,1.2,0.5c0.4,0,0.9-0.2,1.2-0.5c0.7-0.7,0.7-1.9,0-2.6
					C525.9,485.2,522.7,483.8,519.4,483.8z"/>
				<path class="st11" d="M538.3,477.2c-5.1-5.3-11.8-8.3-18.9-8.3c-7.1,0-13.9,2.9-18.9,8.3c-0.7,0.7-0.7,1.9,0,2.6
					c0.7,0.7,1.8,0.7,2.5,0c4.4-4.6,10.2-7.2,16.5-7.2c6.2,0,12.1,2.6,16.5,7.2c0.3,0.4,0.8,0.5,1.2,0.5c0.4,0,0.9-0.2,1.2-0.5
					C538.9,479,538.9,477.9,538.3,477.2z"/>
				<path class="st11" d="M519.4,476.1c-5.3,0-10.3,2.2-14.1,6.2c-0.7,0.7-0.7,1.9,0,2.6c0.7,0.7,1.8,0.7,2.5,0
					c3.1-3.3,7.3-5.1,11.7-5.1c4.4,0,8.5,1.8,11.7,5.1c0.3,0.4,0.8,0.5,1.2,0.5c0.4,0,0.9-0.2,1.2-0.5c0.7-0.7,0.7-1.9,0-2.6
					C529.7,478.3,524.7,476.1,519.4,476.1z"/>
			</g>
			<path class="st11" d="M522.6,495.8c0,1.8-1.5,3.2-3.3,3.2c-1.8,0-3.3-1.4-3.3-3.2c0-1.8,1.5-3.2,3.3-3.2
				C521.2,492.6,522.6,494,522.6,495.8z"/>
		</g>
		<g>
			<g>
				<polygon class="st11" points="349.5,444.1 350.8,447.3 354.1,448.5 350.8,449.8 349.5,453 348.3,449.8 345,448.5 348.3,447.3 
									"/>
				<ellipse class="st66" cx="401.8" cy="446.1" rx="71" ry="70"/>
				<g>
					<path class="st67" d="M458,403.3c-15.9,8.1-35.2,12.9-56.2,12.9c-20.9,0-40.3-4.8-56.2-12.9"/>
					<path class="st67" d="M345.6,488.9c15.9-8.1,35.2-12.9,56.2-12.9c20.9,0,40.3,4.8,56.2,12.9"/>
				</g>
				<ellipse class="st67" cx="401.8" cy="446.1" rx="50.8" ry="70"/>
				<ellipse class="st67" cx="401.8" cy="446.1" rx="23.5" ry="70"/>
				<line class="st67" x1="330.8" y1="446.1" x2="472.8" y2="446.1"/>
				<line class="st67" x1="401.8" y1="516" x2="401.8" y2="376.1"/>
			</g>
			<path class="st68" d="M401.8,374.3L401.8,374.3c-23.3,0-44,10.8-57.4,27.6c-0.2,0.2-0.4,0.3-0.5,0.6c0,0,0,0,0,0.1
				c-9.4,12.1-15,27.2-15,43.6c0,16.4,5.6,31.5,15,43.6c0,0,0,0,0,0c0.1,0.2,0.3,0.4,0.4,0.5c13.4,16.8,34.1,27.7,57.4,27.7l0,0
				V374.3z"/>
		</g>
	</g>
</g>
</svg>
